<svg xmlns="http://www.w3.org/2000/svg" xmlns:xlink="http://www.w3.org/1999/xlink" xmlns:svgjs="http://svgjs.com/svgjs" version="1.1" width="512" height="512" x="0" y="0" viewBox="0 0 512 512" style="enable-background:new 0 0 512 512" xml:space="preserve" class=""><g><path xmlns="http://www.w3.org/2000/svg" d="m108.94 55a36.323 36.323 0 0 1 4.04 8.81 36.991 36.991 0 1 1 -4.04-8.81z" fill="#5a9bb6" data-original="#a5e2fb" style="" class=""/><g xmlns="http://www.w3.org/2000/svg" fill="#b0b5ca"><path d="m19.992 343.014h174.107v12h-174.107z" transform="matrix(.483 -.875 .875 .483 -250.22 273.979)" fill="#b0b5ca" data-original="#b0b5ca" style="" class=""/><path d="m-106.867 257.865h312.152v12h-312.152z" transform="matrix(.086 -.996 .996 .086 -217.916 290.145)" fill="#b0b5ca" data-original="#b0b5ca" style="" class=""/><path d="m109.293 68.542 169.17 131.407 7.361-9.476-165.392-128.473h125.568l2-12h-141v12h7.375z" fill="#b0b5ca" data-original="#b0b5ca" style="" class=""/><path d="m239.005 228.421h12v158.657h-12z" transform="matrix(.52 -.854 .854 .52 -145.263 357.025)" fill="#b0b5ca" data-original="#b0b5ca" style="" class=""/><path d="m81.436 455.08 3.001 11.619 228.563-58.449-8.5-11z" fill="#b0b5ca" data-original="#b0b5ca" style="" class=""/><path d="m302.599 238.171 37.088 106 11.345-3.91-37.088-106z" fill="#b0b5ca" data-original="#b0b5ca" style="" class=""/><path d="m183.22 250.691 101.667-22.539-2.652-11.703-101.666 22.539z" fill="#b0b5ca" data-original="#b0b5ca" style="" class=""/><path d="m114.895 102.41h12v139.766h-12z" transform="matrix(.915 -.404 .404 .915 -59.312 63.546)" fill="#b0b5ca" data-original="#b0b5ca" style="" class=""/><path d="m464.218 235.307-90.561 120.981 9.607 7.191 93.986-125.479z" fill="#b0b5ca" data-original="#b0b5ca" style="" class=""/><path d="m288.395 90.634h12v97.709h-12z" transform="matrix(.995 -.099 .099 .995 -12.319 29.706)" fill="#b0b5ca" data-original="#b0b5ca" style="" class=""/><path d="m463.042 182.302-151.792-132.302-2.416 14.291 146.34 127.072z" fill="#b0b5ca" data-original="#b0b5ca" style="" class=""/><path d="m323.267 206.042h118.775v12h-118.775z" transform="matrix(1 -.002 .002 1 -.423 .765)" fill="#b0b5ca" data-original="#b0b5ca" style="" class=""/></g><path xmlns="http://www.w3.org/2000/svg" d="m80.041 207.755c-.155 0-.31 0-.466-.018a6 6 0 0 1 -5.523-6.442l.5-6.544a6 6 0 0 1 11.965.919l-.5 6.544a6 6 0 0 1 -5.976 5.541z" fill="#d4e1f4" data-original="#d4e1f4" style="" class=""/><path xmlns="http://www.w3.org/2000/svg" d="m70.092 311.238a6.094 6.094 0 0 1 -.616-.031 6 6 0 0 1 -5.361-6.578l8.113-79.574a6 6 0 0 1 11.939 1.216l-8.113 79.575a6 6 0 0 1 -5.962 5.392z" fill="#d4e1f4" data-original="#d4e1f4" style="" class=""/><path xmlns="http://www.w3.org/2000/svg" d="m382.211 357.839a46.5 46.5 0 1 1 -40.851-24.268 46.254 46.254 0 0 1 40.851 24.268z" fill="#4689d3" data-original="#4689d3" style="" class=""/><circle xmlns="http://www.w3.org/2000/svg" cx="77.659" cy="74.625" fill="#5a9bb6" r="40.5" data-original="#a5e2fb" style="" class=""/><circle xmlns="http://www.w3.org/2000/svg" cx="50.286" cy="450.416" fill="#1e557a" r="38.5" data-original="#53d8d8" style="" class=""/><circle xmlns="http://www.w3.org/2000/svg" cx="280.306" cy="59.761" fill="#7daef3" r="36" data-original="#f3ce7d" style="" class=""/><circle xmlns="http://www.w3.org/2000/svg" cx="160.298" cy="252.63" fill="#5f6dcd" r="26.5" data-original="#5fcda4" style="" class=""/><circle xmlns="http://www.w3.org/2000/svg" cx="299.212" cy="212.16" fill="#6994fe" r="28" data-original="#6994fe" style="" class=""/><circle xmlns="http://www.w3.org/2000/svg" cx="469.021" cy="211.923" fill="#5b5b96" r="30.5" data-original="#8f8fb7" style="" class=""/><path xmlns="http://www.w3.org/2000/svg" d="m65.674 74.625a40.51 40.51 0 0 1 26.243-37.912 40.5 40.5 0 1 0 0 75.823 40.509 40.509 0 0 1 -26.243-37.911z" fill="#589aae" data-original="#85bbcc" style="" class=""/><path xmlns="http://www.w3.org/2000/svg" d="m40.982 450.416a38.5 38.5 0 0 1 23.9-35.627 38.5 38.5 0 1 0 0 71.254 38.5 38.5 0 0 1 -23.9-35.627z" fill="#1c4386" data-original="#44aaa7" style="" class=""/></g></svg>